<?xml version='1.0' encoding='utf-8'?>
<svg xmlns="http://www.w3.org/2000/svg" version="1.1" x="0px" y="0px" width="3000.0px" height="3000.0px" viewBox="0 0 3000.0 3000.0" enable-background="new 0 0 3000.0 3000.0"> <defs> <radialGradient id="fillGrad0" cx="50.000%" cy="50.000%" fx="50.000%" fy="50.000%" r="41.667%"> <stop offset="0.000%" style="stop-color:rgb(246,255,60);stop-opacity:1.000"/> <stop offset="50.000%" style="stop-color:rgb(255,207,84);stop-opacity:0.545"/> <stop offset="100.000%" style="stop-color:rgb(255,249,231);stop-opacity:0.000"/> </radialGradient> <radialGradient id="fillGrad1" cx="50.000%" cy="50.000%" fx="50.000%" fy="50.000%" r="50.000%"> <stop offset="0.000%" style="stop-color:rgb(255,252,197);stop-opacity:1.000"/> <stop offset="50.000%" style="stop-color:rgb(255,252,125);stop-opacity:1.000"/> <stop offset="100.000%" style="stop-color:rgb(255,249,88);stop-opacity:1.000"/> </radialGradient> <radialGradient id="fillGrad2" cx="50.000%" cy="50.000%" fx="50.000%" fy="50.000%" r="50.000%"> <stop offset="0.000%" style="stop-color:rgb(255,252,197);stop-opacity:1.000"/> <stop offset="50.000%" style="stop-color:rgb(255,252,125);stop-opacity:1.000"/> <stop offset="100.000%" style="stop-color:rgb(255,249,88);stop-opacity:1.000"/> </radialGradient> <radialGradient id="fillGrad3" cx="50.000%" cy="50.000%" fx="50.000%" fy="50.000%" r="50.000%"> <stop offset="0.000%" style="stop-color:rgb(255,252,197);stop-opacity:1.000"/> <stop offset="50.000%" style="stop-color:rgb(255,252,125);stop-opacity:1.000"/> <stop offset="100.000%" style="stop-color:rgb(255,249,88);stop-opacity:1.000"/> </radialGradient> <radialGradient id="fillGrad4" cx="50.000%" cy="50.000%" fx="50.000%" fy="50.000%" r="50.000%"> <stop offset="0.000%" style="stop-color:rgb(255,252,197);stop-opacity:1.000"/> <stop offset="50.000%" style="stop-color:rgb(255,252,125);stop-opacity:1.000"/> <stop offset="100.000%" style="stop-color:rgb(255,249,88);stop-opacity:1.000"/> </radialGradient> <radialGradient id="fillGrad5" cx="50.000%" cy="50.000%" fx="50.000%" fy="50.000%" r="50.000%"> <stop offset="0.000%" style="stop-color:rgb(255,252,197);stop-opacity:1.000"/> <stop offset="50.000%" style="stop-color:rgb(255,252,125);stop-opacity:1.000"/> <stop offset="100.000%" style="stop-color:rgb(255,249,88);stop-opacity:1.000"/> </radialGradient> <radialGradient id="fillGrad6" cx="50.000%" cy="50.000%" fx="50.000%" fy="50.000%" r="50.000%"> <stop offset="0.000%" style="stop-color:rgb(255,252,197);stop-opacity:1.000"/> <stop offset="50.000%" style="stop-color:rgb(255,252,125);stop-opacity:1.000"/> <stop offset="100.000%" style="stop-color:rgb(255,249,88);stop-opacity:1.000"/> </radialGradient> <radialGradient id="fillGrad7" cx="50.000%" cy="50.000%" fx="50.000%" fy="50.000%" r="50.000%"> <stop offset="0.000%" style="stop-color:rgb(255,252,197);stop-opacity:1.000"/> <stop offset="50.000%" style="stop-color:rgb(255,252,125);stop-opacity:1.000"/> <stop offset="100.000%" style="stop-color:rgb(255,249,88);stop-opacity:1.000"/> </radialGradient> <radialGradient id="fillGrad8" cx="50.000%" cy="50.000%" fx="50.000%" fy="50.000%" r="50.000%"> <stop offset="0.000%" style="stop-color:rgb(255,252,197);stop-opacity:1.000"/> <stop offset="50.000%" style="stop-color:rgb(255,252,125);stop-opacity:1.000"/> <stop offset="100.000%" style="stop-color:rgb(255,249,88);stop-opacity:1.000"/> </radialGradient> <radialGradient id="fillGrad9" cx="50.000%" cy="50.000%" fx="50.000%" fy="50.000%" r="50.000%"> <stop offset="0.000%" style="stop-color:rgb(255,252,197);stop-opacity:1.000"/> <stop offset="50.000%" style="stop-color:rgb(255,252,125);stop-opacity:1.000"/> <stop offset="100.000%" style="stop-color:rgb(255,249,88);stop-opacity:1.000"/> </radialGradient> <radialGradient id="fillGrad10" cx="50.000%" cy="50.000%" fx="50.000%" fy="50.000%" r="50.000%"> <stop offset="0.000%" style="stop-color:rgb(255,252,197);stop-opacity:1.000"/> <stop offset="50.000%" style="stop-color:rgb(255,252,125);stop-opacity:1.000"/> <stop offset="100.000%" style="stop-color:rgb(255,249,88);stop-opacity:1.000"/> </radialGradient> <radialGradient id="fillGrad11" cx="50.000%" cy="50.000%" fx="50.000%" fy="50.000%" r="50.000%"> <stop offset="0.000%" style="stop-color:rgb(255,252,197);stop-opacity:1.000"/> <stop offset="50.000%" style="stop-color:rgb(255,252,125);stop-opacity:1.000"/> <stop offset="100.000%" style="stop-color:rgb(255,249,88);stop-opacity:1.000"/> </radialGradient> <radialGradient id="fillGrad12" cx="50.000%" cy="50.000%" fx="50.000%" fy="50.000%" r="50.000%"> <stop offset="0.000%" style="stop-color:rgb(234,153,0);stop-opacity:1.000"/> <stop offset="50.000%" style="stop-color:rgb(243,192,0);stop-opacity:1.000"/> <stop offset="100.000%" style="stop-color:rgb(255,243,119);stop-opacity:1.000"/> </radialGradient> </defs> <path transform="rotate(-0.00 1500.00 1500.00)" fill="url(#fillGrad0)" stroke="#000000" fill-opacity="1.0" stroke-opacity="1.000" fill-rule="nonzero" stroke-width="0.0" stroke-linejoin="miter" stroke-linecap="square" d="M0.00,0.00L3000.00,0.00L3000.00,3000.00L0.00,3000.00z"/> <path transform="rotate(-269.83 1500.00 2000.00)" fill="url(#fillGrad1)" stroke="#7F7F7F" fill-opacity="1.0" stroke-opacity="0.004" fill-rule="nonzero" stroke-width="30.0" stroke-linejoin="miter" stroke-linecap="square" d="M1500.00,1955.01C1696.33,1955.01,1855.48,1975.15,1855.48,2000.00C1855.48,2024.85,1696.33,2044.99,1500.00,2044.99C1303.67,2044.99,1144.52,2024.85,1144.52,2000.00C1144.52,1975.15,1303.67,1955.01,1500.00,1955.01z"/> <path transform="rotate(-7.24 1500.00 1500.00)" fill="url(#fillGrad2)" stroke="#7F7F7F" fill-opacity="1.0" stroke-opacity="0.004" fill-rule="nonzero" stroke-width="30.0" stroke-linejoin="miter" stroke-linecap="square" d="M1500.00,1112.51C1714.01,1112.51,1887.49,1285.99,1887.49,1500.00C1887.49,1714.01,1714.01,1887.49,1500.00,1887.49C1285.99,1887.49,1112.51,1714.01,1112.51,1500.00C1112.51,1285.99,1285.99,1112.51,1500.00,1112.51z"/> <path transform="rotate(-269.83 1500.00 1000.00)" fill="url(#fillGrad3)" stroke="#7F7F7F" fill-opacity="1.0" stroke-opacity="0.004" fill-rule="nonzero" stroke-width="30.0" stroke-linejoin="miter" stroke-linecap="square" d="M1500.00,955.01C1696.33,955.01,1855.48,975.15,1855.48,1000.00C1855.48,1024.85,1696.33,1044.99,1500.00,1044.99C1303.67,1044.99,1144.52,1024.85,1144.52,1000.00C1144.52,975.15,1303.67,955.01,1500.00,955.01z"/> <path transform="rotate(-359.68 2000.00 1500.00)" fill="url(#fillGrad4)" stroke="#7F7F7F" fill-opacity="1.0" stroke-opacity="0.004" fill-rule="nonzero" stroke-width="30.0" stroke-linejoin="miter" stroke-linecap="square" d="M2000.00,1455.01C2196.33,1455.01,2355.48,1475.15,2355.48,1500.00C2355.48,1524.85,2196.33,1544.99,2000.00,1544.99C1803.67,1544.99,1644.52,1524.85,1644.52,1500.00C1644.52,1475.15,1803.67,1455.01,2000.00,1455.01z"/> <path transform="rotate(-359.68 1000.00 1500.00)" fill="url(#fillGrad5)" stroke="#7F7F7F" fill-opacity="1.0" stroke-opacity="0.004" fill-rule="nonzero" stroke-width="30.0" stroke-linejoin="miter" stroke-linecap="square" d="M1000.00,1455.01C1196.33,1455.01,1355.48,1475.15,1355.48,1500.00C1355.48,1524.85,1196.33,1544.99,1000.00,1544.99C803.67,1544.99,644.52,1524.85,644.52,1500.00C644.52,1475.15,803.67,1455.01,1000.00,1455.01z"/> <path transform="rotate(-44.79 1500.00 1500.00)" fill="url(#fillGrad6)" stroke="#7F7F7F" fill-opacity="1.0" stroke-opacity="0.004" fill-rule="nonzero" stroke-width="30.0" stroke-linejoin="miter" stroke-linecap="square" d="M1500.00,1480.15C1848.40,1480.15,2130.83,1489.04,2130.83,1500.00C2130.83,1510.96,1848.40,1519.85,1500.00,1519.85C1151.60,1519.85,869.17,1510.96,869.17,1500.00C869.17,1489.04,1151.60,1480.15,1500.00,1480.15z"/> <path transform="rotate(-22.75 1500.00 1500.00)" fill="url(#fillGrad7)" stroke="#7F7F7F" fill-opacity="1.0" stroke-opacity="0.004" fill-rule="nonzero" stroke-width="30.0" stroke-linejoin="miter" stroke-linecap="square" d="M1500.00,1480.15C1848.40,1480.15,2130.83,1489.04,2130.83,1500.00C2130.83,1510.96,1848.40,1519.85,1500.00,1519.85C1151.60,1519.85,869.17,1510.96,869.17,1500.00C869.17,1489.04,1151.60,1480.15,1500.00,1480.15z"/> <path transform="rotate(-66.78 1500.00 1500.00)" fill="url(#fillGrad8)" stroke="#7F7F7F" fill-opacity="1.0" stroke-opacity="0.004" fill-rule="nonzero" stroke-width="30.0" stroke-linejoin="miter" stroke-linecap="square" d="M1500.00,1480.15C1848.40,1480.15,2130.83,1489.04,2130.83,1500.00C2130.83,1510.96,1848.40,1519.85,1500.00,1519.85C1151.60,1519.85,869.17,1510.96,869.17,1500.00C869.17,1489.04,1151.60,1480.15,1500.00,1480.15z"/> <path transform="rotate(-314.98 1500.00 1500.00)" fill="url(#fillGrad9)" stroke="#7F7F7F" fill-opacity="1.0" stroke-opacity="0.004" fill-rule="nonzero" stroke-width="30.0" stroke-linejoin="miter" stroke-linecap="square" d="M1500.00,1480.15C1848.40,1480.15,2130.83,1489.04,2130.83,1500.00C2130.83,1510.96,1848.40,1519.85,1500.00,1519.85C1151.60,1519.85,869.17,1510.96,869.17,1500.00C869.17,1489.04,1151.60,1480.15,1500.00,1480.15z"/> <path transform="rotate(-292.53 1500.00 1500.00)" fill="url(#fillGrad10)" stroke="#7F7F7F" fill-opacity="1.0" stroke-opacity="0.004" fill-rule="nonzero" stroke-width="30.0" stroke-linejoin="miter" stroke-linecap="square" d="M1500.00,1480.15C1848.40,1480.15,2130.83,1489.04,2130.83,1500.00C2130.83,1510.96,1848.40,1519.85,1500.00,1519.85C1151.60,1519.85,869.17,1510.96,869.17,1500.00C869.17,1489.04,1151.60,1480.15,1500.00,1480.15z"/> <path transform="rotate(-157.14 1500.00 1500.00)" fill="url(#fillGrad11)" stroke="#7F7F7F" fill-opacity="1.0" stroke-opacity="0.004" fill-rule="nonzero" stroke-width="30.0" stroke-linejoin="miter" stroke-linecap="square" d="M1500.00,1480.15C1848.40,1480.15,2130.83,1489.04,2130.83,1500.00C2130.83,1510.96,1848.40,1519.85,1500.00,1519.85C1151.60,1519.85,869.17,1510.96,869.17,1500.00C869.17,1489.04,1151.60,1480.15,1500.00,1480.15z"/> <path transform="rotate(-8.11 1500.00 1500.00)" fill="url(#fillGrad12)" stroke="#7F7F7F" fill-opacity="1.0" stroke-opacity="0.004" fill-rule="nonzero" stroke-width="30.0" stroke-linejoin="miter" stroke-linecap="square" d="M1500.00,1058.19C1744.15,1058.19,1942.07,1255.99,1942.07,1500.00C1942.07,1744.01,1744.15,1941.81,1500.00,1941.81C1255.85,1941.81,1057.93,1744.01,1057.93,1500.00C1057.93,1255.99,1255.85,1058.19,1500.00,1058.19z"/> </svg>